<svg width="24" height="24" viewBox="0 0 24 24" fill="none" xmlns="http://www.w3.org/2000/svg">
<circle cx="12" cy="12" r="12" fill="white"/>
<path d="M7.64433 6.30514V8.03223L6.67271 8.58148C6.48557 8.67617 6.32599 8.8153 6.20875 8.98598C6.09151 9.15666 6.02039 9.35338 6.00197 9.55792V17.6929C5.99693 17.7342 6.00157 17.776 6.01554 17.8153C6.02951 17.8545 6.05245 17.8902 6.08262 17.9196C6.11279 17.9489 6.14942 17.9713 6.18974 17.9849C6.23006 17.9985 6.27303 18.003 6.3154 17.9981H17.6865C17.7279 17.9989 17.769 17.9916 17.8075 17.9765C17.8459 17.9615 17.8808 17.9391 17.91 17.9106C17.9393 17.8821 17.9624 17.8481 17.9778 17.8107C17.9933 17.7733 18.0008 17.7332 17.9999 17.6929V9.55792C17.989 9.3576 17.9256 9.16332 17.8159 8.9935C17.7062 8.82369 17.5538 8.68396 17.3731 8.58758L16.3638 8.02002V6.30514C16.3638 6.22421 16.3308 6.1466 16.272 6.08937C16.2133 6.03215 16.1335 6 16.0504 6H7.95775C7.87513 6.00156 7.79634 6.03421 7.7379 6.0911C7.67947 6.14799 7.64593 6.2247 7.64433 6.30514ZM6.95479 9.11852L7.64433 8.72795V10.7419L6.94852 10.2658C6.84817 10.1972 6.76658 10.1057 6.71086 9.99935C6.65514 9.89298 6.62698 9.77496 6.62883 9.65557C6.62852 9.54578 6.65864 9.43795 6.716 9.34344C6.77337 9.24892 6.85586 9.17122 6.95479 9.11852ZM6.62883 10.7785L11.4619 14.0923L6.64763 17.1437L6.62883 10.7785ZM7.37478 17.3695L12.001 14.4402L16.6271 17.3634L7.37478 17.3695ZM16.3576 8.72795L17.0534 9.11852C17.1504 9.17586 17.2308 9.25645 17.2867 9.3526C17.3427 9.44876 17.3724 9.55726 17.3731 9.66777C17.3755 9.78725 17.3476 9.90546 17.2918 10.0119C17.236 10.1184 17.1541 10.2098 17.0534 10.2781L16.3576 10.7541V8.72795ZM17.3731 10.7785V17.1315L12.5651 14.0801L17.3731 10.7785ZM8.27118 6.61028H15.7307V11.1752L12.001 13.7322L8.27118 11.1752V6.61028Z" fill="#249ECE"/>
<path d="M12.465 12.2556H11.7128C11.6301 12.2572 11.5514 12.2898 11.4929 12.3467C11.4345 12.4036 11.4009 12.4803 11.3993 12.5608C11.3993 12.6417 11.4324 12.7193 11.4911 12.7765C11.5499 12.8338 11.6296 12.8659 11.7128 12.8659H12.465C12.5481 12.8659 12.6278 12.8338 12.6866 12.7765C12.7454 12.7193 12.7784 12.6417 12.7784 12.5608C12.7768 12.4803 12.7433 12.4036 12.6848 12.3467C12.6264 12.2898 12.5476 12.2572 12.465 12.2556ZM13.1921 7.55038C12.9182 7.40846 12.6177 7.3218 12.3086 7.29558C11.9995 7.26937 11.6881 7.30414 11.3931 7.39781C10.869 7.56109 10.4209 7.89907 10.1276 8.35228C9.83422 8.8055 9.71446 9.34491 9.78933 9.87561C9.86421 10.4063 10.1289 10.8943 10.5369 11.2537C10.9449 11.6132 11.4701 11.821 12.0199 11.8406C12.1015 11.8391 12.1794 11.8073 12.2377 11.7517C12.2959 11.6962 12.3302 11.621 12.3334 11.5416C12.3351 11.4617 12.3045 11.3843 12.2482 11.3261C12.192 11.2679 12.1145 11.2335 12.0325 11.2304C11.7753 11.2231 11.5231 11.1596 11.2946 11.0444C11.0662 10.9291 10.8674 10.7653 10.7129 10.5649C10.5585 10.3646 10.4525 10.1329 10.4027 9.88714C10.353 9.64139 10.3608 9.38787 10.4256 9.14546C10.4904 8.90305 10.6105 8.67798 10.777 8.487C10.9434 8.29602 11.152 8.14404 11.3871 8.04236C11.6223 7.94069 11.8779 7.89194 12.1351 7.89974C12.3922 7.90754 12.6443 7.9717 12.8724 8.08743C13.2355 8.25207 13.5174 8.54934 13.657 8.91485C13.7967 9.28036 13.7828 9.6847 13.6184 10.0403C13.5883 10.1248 13.5327 10.1986 13.4589 10.2519C13.3851 10.3053 13.2965 10.3357 13.2047 10.3394C13.1911 10.3389 13.1777 10.3353 13.1658 10.329C13.1538 10.3226 13.1435 10.3136 13.1357 10.3027C13.0972 10.2654 13.0748 10.2152 13.073 10.1624C13.073 10.0403 13.073 8.36816 13.073 8.42918C13.073 8.34826 13.04 8.27064 12.9812 8.21342C12.9225 8.15619 12.8427 8.12404 12.7596 8.12404C12.6846 8.12479 12.6124 8.15167 12.5561 8.19982C12.4997 8.24797 12.4629 8.31419 12.4525 8.38646C12.3052 8.30559 12.1388 8.26352 11.9698 8.26441C11.6449 8.29393 11.3447 8.44558 11.1328 8.68716C10.921 8.92874 10.8142 9.24121 10.8352 9.5582C10.8091 9.87919 10.9144 10.1972 11.1281 10.443C11.3418 10.6887 11.6466 10.8423 11.976 10.8703C12.2066 10.8621 12.4275 10.7783 12.6029 10.6323C12.6241 10.6765 12.6515 10.7175 12.6844 10.7543C12.7511 10.8215 12.831 10.8749 12.9193 10.9116C13.0075 10.9483 13.1024 10.9674 13.1984 10.9679C13.4167 10.9648 13.6289 10.8971 13.8069 10.774C13.9849 10.6509 14.1202 10.478 14.1951 10.2783C14.4248 9.78588 14.4486 9.22572 14.2614 8.71651C14.0741 8.2073 13.6907 7.78906 13.1921 7.55038ZM11.9886 10.2478C11.7378 10.2478 11.4746 9.96709 11.4746 9.54599C11.4583 9.38966 11.5047 9.23325 11.6039 9.10934C11.7032 8.98543 11.8477 8.90356 12.0074 8.88079C12.2832 8.88079 12.4713 9.14931 12.4775 9.52769V9.5582C12.4713 9.93047 12.2581 10.2478 11.9886 10.2478Z" fill="#249ECE"/>
</svg>
