<svg width="24" height="24" viewBox="0 0 24 24" fill="none" xmlns="http://www.w3.org/2000/svg">
<circle cx="12" cy="12" r="12" fill="white"/>
<path d="M17.4855 14.2223L14.5932 12.9261C14.4621 12.87 14.3191 12.8474 14.1772 12.8605C14.0352 12.8735 13.8987 12.9217 13.7801 13.0008C13.7681 13.0086 13.7566 13.0172 13.7458 13.0265L12.2341 14.3123C12.2184 14.3209 12.201 14.3256 12.1831 14.3263C12.1653 14.3269 12.1475 14.3234 12.1313 14.316C11.1596 13.847 10.153 12.8465 9.68218 11.8883C9.67434 11.8723 9.67027 11.8547 9.67027 11.8369C9.67027 11.8191 9.67434 11.8015 9.68218 11.7855L10.9722 10.2548C10.9815 10.2435 10.9901 10.2316 10.9979 10.2193C11.0759 10.1002 11.1231 9.96359 11.135 9.82174C11.147 9.67989 11.1235 9.53729 11.0665 9.40682L9.77953 6.51937C9.70645 6.34892 9.58005 6.20677 9.41931 6.11426C9.25857 6.02175 9.07217 5.98386 8.88807 6.00629C8.08798 6.11148 7.35355 6.50439 6.82205 7.11162C6.29055 7.71884 5.99833 8.49882 6.00001 9.3058C6.00001 14.0999 9.90015 18 14.6942 18C15.5011 18.0015 16.2811 17.7093 16.8882 17.1778C17.4954 16.6463 17.8884 15.912 17.9937 15.1119C18.0161 14.9287 17.9787 14.7431 17.8872 14.5828C17.7956 14.4225 17.6547 14.2961 17.4855 14.2223ZM14.6942 17.2653C10.3055 17.2653 6.73473 13.6945 6.73473 9.3058C6.73268 8.67757 6.95943 8.07009 7.37262 7.59685C7.7858 7.12361 8.35715 6.81699 8.97991 6.73428H8.99399C9.01867 6.73474 9.04263 6.74264 9.06273 6.75696C9.08283 6.77127 9.09814 6.79132 9.10665 6.81448L10.3985 9.69888C10.4059 9.71491 10.4097 9.73235 10.4097 9.75C10.4097 9.76765 10.4059 9.78509 10.3985 9.80112L9.10604 11.3355C9.09644 11.3465 9.08764 11.3581 9.07971 11.3704C8.99883 11.4938 8.95121 11.6361 8.94145 11.7834C8.93169 11.9306 8.96012 12.0779 9.02399 12.211C9.56708 13.3229 10.6875 14.4348 11.8116 14.9778C11.9455 15.0414 12.0935 15.0691 12.2413 15.0584C12.389 15.0477 12.5315 14.9988 12.6547 14.9166C12.6664 14.9087 12.678 14.9001 12.689 14.8909L14.2001 13.6051C14.215 13.5971 14.2315 13.5924 14.2484 13.5914C14.2653 13.5903 14.2823 13.5929 14.2981 13.599L17.191 14.8952C17.2147 14.9052 17.2345 14.9225 17.2478 14.9445C17.2611 14.9664 17.2672 14.992 17.2651 15.0176C17.1828 15.6407 16.8765 16.2125 16.4034 16.6261C15.9302 17.0398 15.3227 17.267 14.6942 17.2653Z" fill="#249ECE" stroke="#249ECE" stroke-width="0.3"/>
</svg>
