<svg width="24" height="24" viewBox="0 0 24 24" fill="none" xmlns="http://www.w3.org/2000/svg">
<circle cx="12" cy="12" r="12" fill="white"/>
<path d="M12.0007 13.143C11.4613 13.143 10.934 12.9754 10.4855 12.6615C10.037 12.3475 9.68746 11.9013 9.48104 11.3792C9.27462 10.8572 9.22061 10.2827 9.32584 9.72845C9.43107 9.17422 9.69082 8.66513 10.0722 8.26555C10.4537 7.86597 10.9396 7.59385 11.4686 7.48361C11.9977 7.37337 12.546 7.42995 13.0444 7.6462C13.5427 7.86245 13.9687 8.22866 14.2684 8.69851C14.568 9.16837 14.728 9.72077 14.728 10.2859C14.7271 11.0433 14.4395 11.7695 13.9282 12.3052C13.417 12.8408 12.7238 13.1421 12.0007 13.143ZM12.0007 8.57157C11.6771 8.57157 11.3607 8.67211 11.0916 8.86048C10.8225 9.04885 10.6128 9.31658 10.4889 9.62983C10.3651 9.94307 10.3327 10.2878 10.3958 10.6203C10.4589 10.9528 10.6148 11.2583 10.8436 11.498C11.0725 11.7378 11.364 11.9011 11.6815 11.9672C11.9989 12.0333 12.3279 11.9994 12.6269 11.8696C12.9259 11.7399 13.1815 11.5202 13.3613 11.2383C13.5411 10.9563 13.6371 10.6249 13.6371 10.2859C13.6366 9.83134 13.4641 9.39557 13.1573 9.07417C12.8505 8.75278 12.4346 8.57202 12.0007 8.57157Z" fill="#249ECE"/>
<path d="M12 20L7.39855 14.3149C7.33461 14.2295 7.27133 14.1436 7.20873 14.0571C6.42312 12.9722 5.99854 11.6475 6 10.2857C6 8.61864 6.63214 7.01984 7.75736 5.84104C8.88258 4.66224 10.4087 4 12 4C13.5913 4 15.1174 4.66224 16.2426 5.84104C17.3679 7.01984 18 8.61864 18 10.2857C18.0013 11.6468 17.5769 12.9709 16.7918 14.0554L16.7913 14.0571C16.7913 14.0571 16.6276 14.2823 16.6031 14.3126L12 20ZM8.07982 13.3686C8.07982 13.3686 8.20691 13.5446 8.23582 13.5823L12 18.2331L15.7691 13.576C15.7931 13.5446 15.9207 13.3674 15.9213 13.3669C16.5634 12.4807 16.9104 11.3983 16.9091 10.2857C16.9091 8.92174 16.3919 7.61364 15.4713 6.64917C14.5506 5.68469 13.302 5.14286 12 5.14286C10.698 5.14286 9.44938 5.68469 8.52875 6.64917C7.60812 7.61364 7.09091 8.92174 7.09091 10.2857C7.08957 11.399 7.43697 12.482 8.07982 13.3686Z" fill="#249ECE"/>
</svg>
