<svg width="24" height="24" viewBox="0 0 24 24" fill="none" xmlns="http://www.w3.org/2000/svg">
<circle cx="12" cy="12" r="12" fill="white"/>
<path d="M18.9968 10.5243C19.0282 9.599 18.8292 8.68061 18.4181 7.85442C18.1391 7.51541 17.752 7.28664 17.3242 7.20796C15.5546 7.04474 13.7778 6.97784 12.0012 7.00755C10.2311 6.9765 8.4606 7.04123 6.69727 7.20149C6.34864 7.26596 6.02602 7.43218 5.76876 7.67987C5.1964 8.21644 5.1328 9.13442 5.0692 9.91017C4.97693 11.305 4.97693 12.7045 5.0692 14.0993C5.0876 14.5359 5.15156 14.9693 5.25999 15.3922C5.33667 15.7187 5.49181 16.0208 5.71152 16.2714C5.97053 16.5322 6.30067 16.7079 6.65911 16.7756C8.03019 16.9477 9.41169 17.0189 10.7929 16.9889C13.0187 17.0213 14.9711 16.9889 17.2797 16.8079C17.6469 16.7444 17.9864 16.5685 18.2527 16.3037C18.4307 16.1226 18.5637 15.901 18.6406 15.6572C18.8681 14.9478 18.9798 14.2053 18.9713 13.4593C18.9968 13.0972 18.9968 10.9122 18.9968 10.5243ZM10.5639 13.8471V9.84553L14.3288 11.856C13.2731 12.4508 11.8804 13.1231 10.5639 13.8471Z" fill="#249ECE"/>
</svg>
