<svg width="24" height="24" viewBox="0 0 24 24" fill="none" xmlns="http://www.w3.org/2000/svg">
<path d="M13.1955 10.6153H13.2139V10.5864L13.1955 10.6153ZM13.1955 10.6153H13.2139V10.5864L13.1955 10.6153ZM13.1955 10.6153H13.2139V10.5864L13.1955 10.6153ZM13.1955 10.6153H13.2139V10.5864L13.1955 10.6153ZM13.1955 10.6153H13.2139V10.5864L13.1955 10.6153ZM13.1955 10.6153H13.2139V10.5864L13.1955 10.6153ZM13.1955 10.6153H13.2139V10.5864L13.1955 10.6153ZM13.1955 10.6153H13.2139V10.5864L13.1955 10.6153ZM13.1955 10.6153H13.2139V10.5864L13.1955 10.6153ZM13.1955 10.6153H13.2139V10.5864L13.1955 10.6153ZM13.1955 10.6153H13.2139V10.5864L13.1955 10.6153ZM13.1955 10.6153H13.2139V10.5864L13.1955 10.6153ZM13.1955 10.6153H13.2139V10.5864L13.1955 10.6153ZM13.1955 10.6153H13.2139V10.5864L13.1955 10.6153ZM13.1955 10.6153H13.2139V10.5864L13.1955 10.6153ZM13.1955 10.6153H13.2139V10.5864L13.1955 10.6153ZM12 0C9.62663 0 7.30655 0.703787 5.33316 2.02236C3.35977 3.34094 1.8217 5.21508 0.913451 7.4078C0.00519927 9.60051 -0.232441 12.0133 0.230582 14.3411C0.693605 16.6689 1.83649 18.807 3.51472 20.4853C5.19295 22.1635 7.33115 23.3064 9.65892 23.7694C11.9867 24.2324 14.3995 23.9948 16.5922 23.0865C18.7849 22.1783 20.6591 20.6402 21.9776 18.6668C23.2962 16.6935 24 14.3734 24 12C23.9965 8.81847 22.7311 5.76824 20.4814 3.51856C18.2318 1.26888 15.1815 0.00347747 12 0ZM8.99935 17.4022C8.99866 17.4554 8.97704 17.5062 8.93917 17.5436C8.9013 17.581 8.85023 17.6019 8.79703 17.6019H6.48479C6.43182 17.6019 6.38103 17.5809 6.34358 17.5434C6.30613 17.506 6.28509 17.4552 6.28509 17.4022V9.63258C6.28474 9.60614 6.28965 9.57989 6.29953 9.55535C6.30941 9.53082 6.32407 9.5085 6.34264 9.48967C6.36122 9.47085 6.38335 9.45591 6.40776 9.44571C6.43216 9.43551 6.45834 9.43026 6.48479 9.43026H8.79703C8.8236 9.43026 8.84991 9.43549 8.87445 9.44566C8.899 9.45583 8.9213 9.47073 8.94009 9.48952C8.95888 9.5083 8.97378 9.53061 8.98395 9.55515C8.99411 9.5797 8.99935 9.60601 8.99935 9.63258V17.4022ZM7.55945 8.39238C7.27207 8.39238 6.99114 8.30716 6.75219 8.1475C6.51324 7.98784 6.327 7.7609 6.21703 7.4954C6.10705 7.22989 6.07827 6.93773 6.13434 6.65587C6.1904 6.37401 6.32879 6.11511 6.532 5.9119C6.73521 5.70869 6.99412 5.5703 7.27598 5.51423C7.55784 5.45817 7.85 5.48694 8.1155 5.59692C8.38101 5.7069 8.60794 5.89313 8.7676 6.13208C8.92727 6.37103 9.01249 6.65196 9.01249 6.93935C9.01283 7.13026 8.97548 7.31936 8.90259 7.49581C8.82969 7.67225 8.72267 7.83257 8.58767 7.96757C8.45268 8.10256 8.29236 8.20958 8.11591 8.28248C7.93947 8.35538 7.75036 8.39272 7.55945 8.39238ZM18.7843 17.4022C18.7836 17.4554 18.762 17.5062 18.7241 17.5436C18.6863 17.581 18.6352 17.6019 18.582 17.6019H16.2698C16.2435 17.6019 16.2176 17.5968 16.1933 17.5867C16.1691 17.5767 16.1471 17.562 16.1286 17.5434C16.11 17.5249 16.0953 17.5029 16.0853 17.4787C16.0752 17.4544 16.0701 17.4285 16.0701 17.4022V13.2271C16.0701 12.1287 15.6786 11.3878 14.6959 11.3878C14.3896 11.3895 14.0915 11.4859 13.8421 11.6637C13.5928 11.8415 13.4046 12.092 13.3033 12.381C13.234 12.5946 13.2037 12.8188 13.2139 13.0431V17.4022C13.2139 17.4559 13.1926 17.5074 13.1547 17.5453C13.1167 17.5832 13.0653 17.6046 13.0116 17.6046H10.6994C10.6729 17.6046 10.6467 17.5993 10.6223 17.5891C10.5979 17.5789 10.5758 17.564 10.5572 17.5451C10.5386 17.5263 10.524 17.504 10.5141 17.4795C10.5042 17.4549 10.4993 17.4287 10.4997 17.4022C10.4997 16.2934 10.5286 10.9096 10.4997 9.64309C10.4993 9.61665 10.5042 9.5904 10.5141 9.56586C10.524 9.54133 10.5386 9.51901 10.5572 9.50018C10.5758 9.48136 10.5979 9.46642 10.6223 9.45622C10.6467 9.44602 10.6729 9.44077 10.6994 9.44077H13.0064C13.033 9.44042 13.0595 9.44541 13.0842 9.45545C13.1089 9.46549 13.1313 9.48038 13.1502 9.49924C13.1691 9.5181 13.184 9.54054 13.194 9.56525C13.204 9.58996 13.209 9.61642 13.2087 9.64309V10.5969C13.4545 10.1702 13.8124 9.81905 14.2436 9.58142C14.6749 9.3438 15.163 9.22882 15.6549 9.24896C17.439 9.24896 18.7791 10.4156 18.7791 12.9275L18.7843 17.4022ZM13.2139 10.6232V10.5943L13.1955 10.6232H13.2139ZM13.1955 10.6232H13.2139V10.5943L13.1955 10.6232ZM13.1955 10.6232H13.2139V10.5943L13.1955 10.6232ZM13.1955 10.6232H13.2139V10.5943L13.1955 10.6232ZM13.1955 10.6232H13.2139V10.5943L13.1955 10.6232ZM13.1955 10.6232H13.2139V10.5943L13.1955 10.6232ZM13.1955 10.6232H13.2139V10.5943L13.1955 10.6232ZM13.1955 10.6232H13.2139V10.5943L13.1955 10.6232ZM13.1955 10.6232H13.2139V10.5943L13.1955 10.6232ZM13.1955 10.6232H13.2139V10.5943L13.1955 10.6232ZM13.1955 10.6232H13.2139V10.5943L13.1955 10.6232ZM13.1955 10.6232H13.2139V10.5943L13.1955 10.6232ZM13.1955 10.6232H13.2139V10.5943L13.1955 10.6232ZM13.1955 10.6232H13.2139V10.5943L13.1955 10.6232ZM13.1955 10.6232H13.2139V10.5943L13.1955 10.6232Z" fill="white"/>
</svg>
