<svg width="25" height="21" viewBox="0 0 25 21" fill="none" xmlns="http://www.w3.org/2000/svg">
<path d="M24.4785 5.96314C23.9895 3.64676 22.1605 0.902083 19.3004 0.34985C18.5979 0.221472 17.8762 0.243543 17.1829 0.414608C16.4895 0.585672 15.8404 0.901839 15.2782 1.34224C14.639 1.82153 14.1206 2.44346 13.7643 3.1585C13.4079 3.87355 13.2234 4.66193 13.2256 5.46085C13.2278 6.25977 13.4165 7.04715 13.7767 7.76025C14.1369 8.47336 14.6587 9.09248 15.3005 9.56831C15.9603 10.0826 16.7374 10.425 17.5622 10.5648C18.387 10.7046 19.2336 10.6374 20.026 10.3693C20.0645 10.3554 20.1057 10.3513 20.1462 10.3573C20.1866 10.3633 20.2249 10.3793 20.2576 10.4038C20.2911 10.429 20.3178 10.4621 20.3353 10.5001C20.3529 10.5382 20.3607 10.58 20.358 10.6218C20.1266 15.7422 15.5346 17.744 14.6163 18.0934C14.4724 18.148 14.3514 18.25 14.2732 18.3825C14.195 18.5151 14.1642 18.6703 14.186 18.8227C14.186 18.8227 14.3031 19.6825 14.3033 19.6836C14.319 19.7848 14.3571 19.8813 14.4148 19.966C14.4725 20.0507 14.5483 20.1215 14.6368 20.1732C14.7253 20.2249 14.8241 20.2563 14.9263 20.2651C15.0284 20.2738 15.1311 20.2597 15.2271 20.2238C25.7062 15.9697 24.9576 8.23302 24.4785 5.96314ZM15.027 19.505L14.9268 18.7681C16.0202 18.3429 20.8502 16.1558 21.0988 10.6554C21.1071 10.4931 21.0755 10.3314 21.0066 10.1843C20.9376 10.0372 20.8336 9.90927 20.7037 9.81184C20.5737 9.71441 20.4218 9.65043 20.2612 9.62554C20.1007 9.60064 19.9365 9.6156 19.7832 9.66908C19.1064 9.89683 18.3837 9.95304 17.6799 9.83267C16.9761 9.71229 16.3132 9.4191 15.7506 8.97939C15.1993 8.57258 14.7508 8.04236 14.4412 7.43117C14.1315 6.81998 13.9692 6.14478 13.9672 5.45961C13.9652 4.77444 14.1237 4.09833 14.4299 3.48537C14.736 2.87241 15.1814 2.33964 15.7304 1.92967C16.2092 1.5531 16.7624 1.28242 17.3536 1.13553C17.9447 0.988628 18.5603 0.968856 19.1596 1.07752C21.6879 1.56584 23.3129 4.03171 23.7531 6.11634C24.2008 8.23821 24.8913 15.4611 15.0272 19.5052L15.027 19.505Z" fill="#E3A670" stroke="#E3A670" stroke-width="0.5"/>
<path d="M17.1719 2.48691C17.1265 2.50438 17.085 2.53064 17.0497 2.56417C17.0144 2.5977 16.9861 2.63785 16.9663 2.68232C16.9466 2.7268 16.9358 2.77473 16.9345 2.82338C16.9333 2.87203 16.9417 2.92045 16.9592 2.96587C16.9766 3.01129 17.0029 3.05282 17.0364 3.0881C17.07 3.12337 17.1101 3.15169 17.1546 3.17145C17.1991 3.19121 17.247 3.20201 17.2956 3.20324C17.3443 3.20447 17.3927 3.19611 17.4381 3.17863C17.452 3.17307 18.8175 2.66271 19.6117 3.64509C19.6423 3.68296 19.68 3.71443 19.7228 3.73771C19.7655 3.76098 19.8124 3.77561 19.8609 3.78075C19.9093 3.7859 19.9582 3.78146 20.0049 3.76768C20.0516 3.75391 20.0951 3.73108 20.133 3.70048C20.1708 3.66989 20.2023 3.63214 20.2256 3.58939C20.2489 3.54663 20.2635 3.49972 20.2686 3.45131C20.2738 3.4029 20.2693 3.35396 20.2556 3.30727C20.2418 3.26057 20.219 3.21705 20.1884 3.17919C19.0585 1.78203 17.2484 2.45745 17.1719 2.48691ZM7.07481 0.34985C6.37233 0.221472 5.65061 0.243543 4.95728 0.414608C4.26396 0.585672 3.61479 0.901839 3.05265 1.34224C2.41346 1.82153 1.89503 2.44346 1.53867 3.1585C1.18231 3.87355 0.99786 4.66193 1.00002 5.46085C1.00218 6.25977 1.19088 7.04715 1.55111 7.76025C1.91133 8.47336 2.43311 9.09248 3.07488 9.56831C3.73469 10.0826 4.51186 10.425 5.33664 10.5648C6.16142 10.7046 7.00802 10.6374 7.80044 10.3693C7.83887 10.3554 7.88016 10.3513 7.92058 10.3573C7.961 10.3633 7.99929 10.3793 8.03201 10.4038C8.06551 10.429 8.09223 10.4621 8.10976 10.5001C8.12728 10.5382 8.13507 10.58 8.13241 10.6218C7.90103 15.7422 3.30903 17.744 2.39074 18.0934C2.24685 18.148 2.12584 18.25 2.04762 18.3825C1.96941 18.5151 1.93865 18.6703 1.96041 18.8227C1.96041 18.8227 2.07748 19.6825 2.07767 19.6836C2.09342 19.7848 2.13152 19.8813 2.18922 19.966C2.24691 20.0507 2.32275 20.1215 2.41121 20.1732C2.49968 20.2249 2.59856 20.2563 2.70067 20.2651C2.80277 20.2738 2.90554 20.2597 3.00152 20.2238C13.4806 15.9697 12.732 8.23302 12.253 5.96314C11.7639 3.64676 9.9349 0.902083 7.07481 0.34985ZM2.80145 19.5052L2.70085 18.7681C3.79439 18.3429 8.62444 16.1558 8.87305 10.6554C8.88138 10.4931 8.84969 10.3314 8.78078 10.1843C8.71187 10.0372 8.60785 9.90927 8.47788 9.81184C8.34791 9.71441 8.19598 9.65043 8.03546 9.62554C7.87495 9.60064 7.71077 9.6156 7.55739 9.66908C6.88066 9.89683 6.15798 9.95304 5.45417 9.83267C4.75036 9.71229 4.08743 9.4191 3.52485 8.97939C2.97352 8.57258 2.52507 8.04236 2.21539 7.43117C1.90571 6.81998 1.74339 6.14478 1.74143 5.45961C1.73947 4.77444 1.89791 4.09833 2.20409 3.48537C2.51027 2.87241 2.95567 2.33964 3.50466 1.92967C3.98342 1.5531 4.53665 1.28242 5.12778 1.13553C5.71892 0.988628 6.3345 0.968856 6.93384 1.07752C9.46214 1.56584 11.0872 4.03171 11.5273 6.11634C11.9751 8.23821 12.6655 15.4611 2.80145 19.5052Z" fill="#E3A670" stroke="#E3A670" stroke-width="0.5"/>
<path d="M4.94452 2.48669C4.8991 2.50417 4.85757 2.53042 4.8223 2.56395C4.78702 2.59748 4.7587 2.63763 4.73894 2.68211C4.71919 2.72658 4.70838 2.77452 4.70715 2.82317C4.70592 2.87182 4.71428 2.92023 4.73176 2.96565C4.74924 3.01107 4.77549 3.05261 4.80902 3.08788C4.84255 3.12315 4.8827 3.15147 4.92718 3.17123C4.97165 3.19099 5.01959 3.20179 5.06824 3.20302C5.11689 3.20426 5.16531 3.19589 5.21073 3.17841C5.22462 3.17286 6.5901 2.66249 7.38428 3.64488C7.4475 3.71918 7.53685 3.76636 7.63386 3.77667C7.73088 3.78697 7.82814 3.75962 7.90557 3.70027C7.94343 3.66969 7.9749 3.63196 7.99817 3.58922C8.02144 3.54648 8.03607 3.49958 8.04121 3.45119C8.04636 3.40279 8.04192 3.35386 8.02815 3.30719C8.01438 3.26051 7.99155 3.21701 7.96096 3.17916C6.83112 1.78181 5.02103 2.45723 4.94452 2.48669Z" fill="#E3A670" stroke="#E3A670" stroke-width="0.5"/>
</svg>
