<svg width="25" height="21" viewBox="0 0 25 21" fill="none" xmlns="http://www.w3.org/2000/svg">
<path d="M0.521708 5.96314C1.01077 3.64676 2.83975 0.902083 5.69984 0.34985C6.40233 0.221472 7.12405 0.243543 7.81738 0.414608C8.5107 0.585672 9.15986 0.901839 9.72201 1.34224C10.3612 1.82153 10.8796 2.44346 11.236 3.1585C11.5924 3.87355 11.7768 4.66193 11.7746 5.46085C11.7725 6.25977 11.5838 7.04715 11.2236 7.76025C10.8633 8.47336 10.3416 9.09248 9.69978 9.56831C9.03997 10.0826 8.2628 10.425 7.43802 10.5648C6.61323 10.7046 5.76664 10.6374 4.97421 10.3693C4.93579 10.3554 4.8945 10.3513 4.85408 10.3573C4.81366 10.3633 4.77536 10.3793 4.74265 10.4038C4.70915 10.429 4.68243 10.4621 4.6649 10.5001C4.64738 10.5382 4.63959 10.58 4.64225 10.6218C4.87362 15.7422 9.46563 17.744 10.3839 18.0934C10.5278 18.148 10.6488 18.25 10.727 18.3825C10.8053 18.5151 10.836 18.6703 10.8143 18.8227C10.8143 18.8227 10.6972 19.6825 10.697 19.6836C10.6812 19.7848 10.6431 19.8813 10.5854 19.966C10.5277 20.0507 10.4519 20.1215 10.3634 20.1732C10.275 20.2249 10.1761 20.2563 10.074 20.2651C9.97189 20.2738 9.86911 20.2597 9.77314 20.2238C-0.705951 15.9697 0.0426493 8.23302 0.521708 5.96314ZM9.97321 19.505L10.0734 18.7681C8.98008 18.3429 4.15003 16.1558 3.90143 10.6554C3.8931 10.4931 3.92478 10.3314 3.99369 10.1843C4.0626 10.0372 4.16662 9.90927 4.29659 9.81184C4.42656 9.71441 4.57849 9.65043 4.73901 9.62554C4.89953 9.60064 5.0637 9.6156 5.21708 9.66908C5.89381 9.89683 6.6165 9.95304 7.32031 9.83267C8.02412 9.71229 8.68704 9.4191 9.24962 8.97939C9.80095 8.57258 10.2494 8.04236 10.5591 7.43117C10.8688 6.81998 11.0311 6.14478 11.033 5.45961C11.035 4.77444 10.8766 4.09833 10.5704 3.48537C10.2642 2.87241 9.8188 2.33964 9.26982 1.92967C8.79105 1.5531 8.23782 1.28242 7.64669 1.13553C7.05556 0.988628 6.43998 0.968856 5.84063 1.07752C3.31233 1.56584 1.68731 4.03171 1.24715 6.11634C0.799399 8.23821 0.108969 15.4611 9.97303 19.5052L9.97321 19.505Z" fill="#E3A670" stroke="#E3A670" stroke-width="0.5"/>
<path d="M7.82808 2.48691C7.8735 2.50438 7.91503 2.53064 7.9503 2.56417C7.98558 2.5977 8.0139 2.63785 8.03366 2.68232C8.05342 2.7268 8.06422 2.77473 8.06545 2.82338C8.06668 2.87203 8.05832 2.92045 8.04084 2.96587C8.02336 3.01129 7.99711 3.05282 7.96358 3.0881C7.93005 3.12337 7.8899 3.15169 7.84542 3.17145C7.80095 3.19121 7.75301 3.20201 7.70436 3.20324C7.65571 3.20447 7.60729 3.19611 7.56187 3.17863C7.54798 3.17307 6.1825 2.66271 5.38832 3.64509C5.35773 3.68296 5.31998 3.71443 5.27723 3.73771C5.23447 3.76098 5.18756 3.77561 5.13915 3.78075C5.09074 3.7859 5.0418 3.78146 4.99511 3.76768C4.94842 3.75391 4.90489 3.73108 4.86703 3.70048C4.82916 3.66989 4.79769 3.63214 4.77442 3.58939C4.75114 3.54663 4.73651 3.49972 4.73137 3.45131C4.72623 3.4029 4.73067 3.35396 4.74444 3.30727C4.75821 3.26057 4.78105 3.21705 4.81164 3.17919C5.94148 1.78203 7.75157 2.45745 7.82808 2.48691ZM17.9252 0.34985C18.6277 0.221472 19.3494 0.243543 20.0427 0.414608C20.736 0.585672 21.3852 0.901839 21.9474 1.34224C22.5865 1.82153 23.105 2.44346 23.4613 3.1585C23.8177 3.87355 24.0021 4.66193 24 5.46085C23.9978 6.25977 23.8091 7.04715 23.4489 7.76025C23.0887 8.47336 22.5669 9.09248 21.9251 9.56831C21.2653 10.0826 20.4881 10.425 19.6634 10.5648C18.8386 10.7046 17.992 10.6374 17.1996 10.3693C17.1611 10.3554 17.1198 10.3513 17.0794 10.3573C17.039 10.3633 17.0007 10.3793 16.968 10.4038C16.9345 10.429 16.9078 10.4621 16.8902 10.5001C16.8727 10.5382 16.8649 10.58 16.8676 10.6218C17.099 15.7422 21.691 17.744 22.6093 18.0934C22.7532 18.148 22.8742 18.25 22.9524 18.3825C23.0306 18.5151 23.0614 18.6703 23.0396 18.8227C23.0396 18.8227 22.9225 19.6825 22.9223 19.6836C22.9066 19.7848 22.8685 19.8813 22.8108 19.966C22.7531 20.0507 22.6773 20.1215 22.5888 20.1732C22.5003 20.2249 22.4014 20.2563 22.2993 20.2651C22.1972 20.2738 22.0945 20.2597 21.9985 20.2238C11.5194 15.9697 12.268 8.23302 12.747 5.96314C13.2361 3.64676 15.0651 0.902083 17.9252 0.34985ZM22.1986 19.5052L22.2991 18.7681C21.2056 18.3429 16.3756 16.1558 16.127 10.6554C16.1186 10.4931 16.1503 10.3314 16.2192 10.1843C16.2881 10.0372 16.3921 9.90927 16.5221 9.81184C16.6521 9.71441 16.804 9.65043 16.9645 9.62554C17.1251 9.60064 17.2892 9.6156 17.4426 9.66908C18.1193 9.89683 18.842 9.95304 19.5458 9.83267C20.2496 9.71229 20.9126 9.4191 21.4751 8.97939C22.0265 8.57258 22.4749 8.04236 22.7846 7.43117C23.0943 6.81998 23.2566 6.14478 23.2586 5.45961C23.2605 4.77444 23.1021 4.09833 22.7959 3.48537C22.4897 2.87241 22.0443 2.33964 21.4953 1.92967C21.0166 1.5531 20.4634 1.28242 19.8722 1.13553C19.2811 0.988628 18.6655 0.968856 18.0662 1.07752C15.5379 1.56584 13.9128 4.03171 13.4727 6.11634C13.0249 8.23821 12.3345 15.4611 22.1986 19.5052Z" fill="#E3A670" stroke="#E3A670" stroke-width="0.5"/>
<path d="M20.0555 2.48669C20.1009 2.50417 20.1424 2.53042 20.1777 2.56395C20.213 2.59748 20.2413 2.63763 20.2611 2.68211C20.2808 2.72658 20.2916 2.77452 20.2928 2.82317C20.2941 2.87182 20.2857 2.92023 20.2682 2.96565C20.2508 3.01107 20.2245 3.05261 20.191 3.08788C20.1574 3.12315 20.1173 3.15147 20.0728 3.17123C20.0283 3.19099 19.9804 3.20179 19.9318 3.20302C19.8831 3.20426 19.8347 3.19589 19.7893 3.17841C19.7754 3.17286 18.4099 2.66249 17.6157 3.64488C17.5525 3.71918 17.4632 3.76636 17.3661 3.77667C17.2691 3.78697 17.1719 3.75962 17.0944 3.70027C17.0566 3.66969 17.0251 3.63196 17.0018 3.58922C16.9786 3.54648 16.9639 3.49958 16.9588 3.45119C16.9536 3.40279 16.9581 3.35386 16.9719 3.30719C16.9856 3.26051 17.0085 3.21701 17.039 3.17916C18.1689 1.78181 19.979 2.45723 20.0555 2.48669Z" fill="#E3A670" stroke="#E3A670" stroke-width="0.5"/>
</svg>
