<svg width="24" height="24" viewBox="0 0 24 24" fill="none" xmlns="http://www.w3.org/2000/svg">
<path d="M11.9999 0C5.38291 0 0 5.38309 0 11.9998C0 18.6167 5.38291 24 11.9999 24C18.6164 24 23.9998 18.6167 23.9998 11.9998C23.9998 5.38309 18.6164 0 11.9999 0ZM15.3914 7.57523C15.3914 7.63205 15.3688 7.68654 15.3286 7.72672C15.2885 7.7669 15.234 7.78947 15.1771 7.78947L13.813 7.79033C12.913 7.79033 12.7485 8.14083 12.7485 8.83112V10.2631H15.088C15.1495 10.2631 15.2082 10.2897 15.2487 10.336C15.2892 10.3822 15.308 10.4437 15.3005 10.5048L14.9674 13.0828C14.9607 13.1344 14.9355 13.1819 14.8964 13.2163C14.8572 13.2507 14.8069 13.2696 14.7549 13.2696H12.7485V19.671C12.7485 19.7278 12.7259 19.7823 12.6857 19.8225C12.6455 19.8627 12.591 19.8852 12.5342 19.8852H9.87242C9.8156 19.8852 9.76111 19.8627 9.72093 19.8225C9.68075 19.7823 9.65818 19.7278 9.65818 19.671V13.2696H7.64534C7.58852 13.2696 7.53403 13.247 7.49385 13.2069C7.45367 13.1667 7.4311 13.1122 7.4311 13.0554V10.4774C7.4311 10.4205 7.45367 10.3661 7.49385 10.3259C7.53403 10.2857 7.58852 10.2631 7.64534 10.2631H9.65818V8.57596C9.65818 6.3414 11.0105 4.95353 13.1879 4.95353C14.1239 4.95353 14.9511 5.02316 15.2052 5.05679C15.2567 5.0636 15.304 5.08888 15.3382 5.12794C15.3725 5.16699 15.3914 5.21716 15.3914 5.26911V7.57523Z" fill="white"/>
</svg>
